<svg id="svg" version="1.1" xmlns="http://www.w3.org/2000/svg" xmlns:xlink="http://www.w3.org/1999/xlink" width="400" height="471.2041884816754" viewBox="0, 0, 400,471.2041884816754"><g id="svgg"><path id="path0" d="M0.027 31.075 C 0.042 48.166,0.117 61.592,0.195 60.909 C 0.379 59.284,0.590 59.106,2.579 58.890 C 3.483 58.792,4.708 58.541,5.302 58.333 C 5.907 58.121,8.758 57.642,11.782 57.245 C 14.752 56.855,20.275 55.971,24.055 55.279 C 27.835 54.588,32.651 53.791,34.757 53.507 C 52.317 51.138,84.493 44.574,88.724 42.496 C 89.658 42.038,90.657 41.722,91.571 41.597 C 95.871 41.007,109.473 36.922,117.648 33.765 C 119.011 33.239,122.192 32.110,124.717 31.256 C 142.337 25.300,187.917 4.937,193.814 0.387 C 194.300 0.013,193.148 0.009,97.153 0.004 L 0.000 0.000 0.027 31.075 M206.971 0.688 C 212.603 4.230,245.553 19.619,253.355 22.351 C 254.620 22.794,256.078 23.370,256.595 23.631 C 260.950 25.825,273.287 30.602,278.251 32.016 C 279.738 32.440,280.873 32.903,281.646 33.403 C 284.034 34.947,290.408 37.062,296.327 38.275 C 297.357 38.486,299.395 39.058,300.855 39.545 C 304.511 40.767,309.751 42.234,313.500 43.086 C 315.228 43.479,319.072 44.410,322.042 45.156 C 325.012 45.901,328.282 46.614,329.308 46.739 C 331.991 47.066,335.615 47.750,341.724 49.082 C 344.669 49.724,348.449 50.479,350.123 50.759 C 351.797 51.039,356.127 51.793,359.745 52.434 C 366.998 53.719,370.525 54.263,373.785 54.600 C 375.659 54.793,380.675 55.697,396.171 58.632 C 398.115 59.000,399.772 59.302,399.853 59.302 C 399.934 59.303,400.000 45.960,400.000 29.651 L 400.000 0.000 302.946 0.004 L 205.891 0.009 206.971 0.688 M198.881 15.738 C 196.692 16.034,194.567 16.967,183.996 22.278 C 152.370 38.165,125.346 48.777,97.693 56.169 C 82.838 60.140,72.921 62.144,52.626 65.277 C 28.685 68.973,20.800 70.388,16.764 71.712 C 15.268 72.202,15.316 71.965,15.319 78.918 C 15.331 111.691,19.558 178.461,23.194 203.338 C 24.312 210.989,28.967 231.394,32.332 243.397 C 45.319 289.719,61.537 322.908,90.431 362.297 C 114.661 395.329,156.263 431.749,190.001 449.467 C 199.131 454.261,199.203 454.263,208.149 449.927 C 240.988 434.012,285.372 395.284,310.034 361.027 C 338.350 321.692,354.082 290.596,365.023 252.332 C 375.505 215.673,379.875 189.518,380.953 156.996 C 381.199 149.557,381.565 142.180,382.327 129.308 C 383.607 107.653,384.050 95.775,384.347 75.139 L 384.389 72.221 382.898 71.670 C 380.203 70.673,371.923 69.113,355.817 66.566 C 312.772 59.758,294.580 55.182,264.310 43.549 C 246.568 36.730,224.031 26.728,211.242 19.998 C 203.552 15.951,201.792 15.344,198.881 15.738 M203.604 27.278 C 207.142 28.771,215.041 32.481,231.222 40.250 C 265.009 56.471,294.820 66.082,329.602 71.969 C 332.518 72.463,339.941 73.743,346.097 74.815 C 352.253 75.886,360.515 77.300,364.458 77.956 C 368.400 78.612,371.780 79.196,371.969 79.254 C 373.001 79.570,371.610 122.738,369.554 154.148 C 366.378 202.690,365.357 209.681,356.790 241.561 C 348.122 273.818,335.719 302.608,318.294 330.916 C 302.031 357.338,284.969 377.746,262.838 397.250 C 260.353 399.440,257.349 402.087,256.161 403.134 C 245.003 412.963,236.285 420.058,231.419 423.270 C 216.338 433.226,203.656 439.909,199.777 439.946 L 198.180 439.961 194.082 437.934 C 182.040 431.979,170.508 424.338,157.094 413.425 C 118.919 382.371,97.584 357.669,76.047 319.588 C 51.208 275.667,34.561 219.097,32.593 171.919 C 32.342 165.906,32.024 160.258,31.026 144.134 C 29.101 113.016,28.803 106.042,28.784 91.671 C 28.775 85.119,28.820 79.706,28.884 79.642 C 29.046 79.479,46.510 76.280,69.710 72.162 C 98.059 67.130,114.957 62.699,135.984 54.784 C 147.027 50.627,159.608 45.432,165.930 42.417 C 167.928 41.464,171.728 39.649,174.374 38.383 C 202.560 24.898,200.142 25.817,203.604 27.278 M0.032 268.581 L 0.000 471.281 96.954 471.281 L 193.908 471.281 192.830 470.490 C 191.982 469.867,185.618 466.568,185.265 466.568 C 185.168 466.568,178.749 462.576,170.839 457.596 C 167.761 455.658,163.918 453.244,162.297 452.231 C 149.934 444.500,112.984 411.894,101.318 398.420 C 99.864 396.741,96.921 393.427,94.777 391.056 C 90.718 386.567,77.840 369.821,75.837 366.428 C 75.357 365.614,73.753 363.225,72.273 361.119 C 68.882 356.292,64.649 349.857,62.810 346.734 C 62.000 345.358,60.905 343.819,60.251 343.135 C 59.621 342.478,59.107 341.804,59.107 341.638 C 59.107 341.071,58.158 339.187,56.941 337.338 C 56.274 336.324,55.383 334.810,54.961 333.974 C 54.356 332.774,54.060 332.398,53.554 332.186 C 53.023 331.964,52.854 331.731,52.568 330.825 C 52.121 329.407,50.274 325.778,46.648 319.195 C 38.158 303.779,26.366 274.227,20.516 253.706 C 16.931 241.126,11.919 219.473,9.040 204.124 C 8.595 201.748,7.840 197.727,7.364 195.189 C 6.602 191.125,6.449 189.825,6.083 184.291 C 5.803 180.060,5.353 175.601,4.706 170.643 L 3.744 163.279 3.055 145.704 C 2.675 136.038,2.271 125.832,2.157 123.024 C 1.066 96.255,0.417 79.079,0.224 71.870 C 0.136 68.576,0.049 157.096,0.032 268.581 M399.853 73.935 C 399.797 79.241,399.575 84.739,399.015 94.649 C 397.886 114.635,397.644 120.172,397.643 126.011 C 397.640 138.050,396.943 149.604,394.688 174.963 C 392.524 199.310,390.668 210.015,383.915 237.113 C 378.826 257.533,377.408 262.211,372.365 275.209 C 367.725 287.169,365.636 293.031,365.636 294.092 C 365.636 294.255,365.236 294.845,364.748 295.403 C 363.568 296.750,362.405 299.061,360.929 302.995 C 360.260 304.777,358.625 308.532,357.296 311.340 C 355.967 314.148,354.646 317.099,354.361 317.897 C 354.076 318.695,353.627 319.604,353.364 319.917 C 352.567 320.864,349.966 325.162,346.492 331.271 C 342.266 338.705,337.377 346.844,334.821 350.699 C 333.716 352.366,332.589 354.178,332.316 354.725 C 332.043 355.272,331.541 356.011,331.202 356.368 C 330.862 356.724,329.508 358.580,328.192 360.491 C 326.877 362.403,324.462 365.911,322.828 368.287 C 316.844 376.983,315.226 379.202,313.206 381.487 C 312.072 382.769,309.274 386.067,306.988 388.816 C 304.702 391.565,301.477 395.248,299.821 396.999 C 298.164 398.751,295.092 402.021,292.992 404.265 C 285.685 412.078,282.513 415.082,273.136 423.067 C 270.604 425.223,267.604 427.836,266.470 428.873 C 261.876 433.075,251.728 441.574,243.594 448.035 C 239.179 451.540,235.879 453.736,228.866 457.832 C 225.950 459.536,223.122 461.210,222.582 461.553 C 222.042 461.897,220.805 462.607,219.833 463.133 C 218.861 463.658,216.210 465.118,213.942 466.376 C 211.674 467.635,208.758 469.232,207.462 469.924 L 205.106 471.183 302.487 471.232 C 356.047 471.260,399.898 471.252,399.934 471.216 C 399.971 471.180,399.978 380.716,399.951 270.185 C 399.924 159.654,399.880 71.341,399.853 73.935 " stroke="none" fill="#f3eddf" fill-rule="evenodd"></path><path id="path1" d="M193.225 0.909 C 190.821 2.566,179.044 8.555,172.666 11.364 C 171.715 11.783,168.729 13.143,166.028 14.387 C 163.328 15.631,159.971 17.134,158.567 17.728 C 157.162 18.322,154.114 19.647,151.792 20.674 C 149.470 21.701,146.377 23.028,144.919 23.623 C 143.461 24.218,140.412 25.472,138.144 26.409 C 132.611 28.696,128.955 30.073,126.412 30.826 C 124.429 31.414,121.587 32.436,115.540 34.738 C 109.420 37.067,96.037 41.029,91.900 41.735 C 90.791 41.925,89.557 42.287,88.856 42.629 C 84.818 44.601,51.368 51.448,34.757 53.703 C 32.651 53.989,27.968 54.745,24.350 55.385 C 20.731 56.024,15.164 56.904,11.978 57.341 C 8.792 57.778,5.832 58.279,5.400 58.455 C 4.968 58.631,3.786 58.886,2.774 59.021 C 0.492 59.327,0.388 59.425,0.253 61.395 C 0.067 64.107,0.570 80.396,1.672 107.315 C 2.260 121.679,3.012 140.103,3.343 148.257 C 3.936 162.855,3.958 163.192,4.824 170.152 C 5.343 174.324,5.897 180.038,6.176 184.094 L 6.650 190.967 8.828 202.160 C 12.210 219.541,12.865 222.644,14.824 230.535 C 15.830 234.585,17.070 239.755,17.580 242.023 C 20.268 253.974,26.819 273.955,32.641 287.961 C 33.721 290.560,35.396 294.629,36.362 297.005 C 39.719 305.256,42.966 312.278,45.613 317.010 C 48.704 322.537,52.500 329.898,52.826 331.001 C 53.006 331.608,53.228 331.887,53.715 332.120 C 54.229 332.365,54.553 332.804,55.277 334.237 C 55.780 335.232,56.614 336.673,57.130 337.439 C 58.205 339.032,59.303 341.128,59.303 341.586 C 59.303 341.757,59.723 342.325,60.236 342.848 C 60.749 343.370,61.828 344.890,62.634 346.224 C 64.758 349.740,68.309 355.147,71.419 359.599 C 72.909 361.733,74.632 364.296,75.248 365.294 C 76.584 367.458,76.208 366.938,83.443 376.632 C 89.815 385.171,92.024 387.932,95.306 391.458 C 96.512 392.754,98.072 394.477,98.772 395.287 C 107.057 404.874,118.920 416.371,134.092 429.517 C 150.392 443.639,156.670 448.544,165.611 454.143 C 174.357 459.620,176.246 460.808,180.461 463.484 C 183.071 465.141,185.516 466.512,187.413 467.382 C 190.418 468.761,192.863 470.163,193.509 470.877 C 193.862 471.267,194.073 471.281,199.311 471.281 L 204.746 471.281 208.951 468.957 C 211.264 467.679,214.659 465.810,216.495 464.805 C 219.864 462.961,221.588 461.962,230.339 456.786 C 237.043 452.821,241.409 449.791,246.146 445.818 C 246.902 445.183,249.907 442.716,252.823 440.334 C 259.084 435.220,261.190 433.424,267.078 428.179 C 269.503 426.019,272.279 423.589,273.248 422.779 C 279.719 417.368,286.024 411.542,289.421 407.836 C 290.568 406.584,293.764 403.182,296.523 400.276 C 301.944 394.567,304.908 391.258,307.503 388.022 C 309.392 385.665,313.234 381.129,314.572 379.676 C 315.069 379.136,316.658 376.971,318.104 374.865 C 319.549 372.759,321.806 369.489,323.120 367.599 C 324.434 365.709,326.562 362.627,327.850 360.749 C 329.138 358.871,330.510 356.971,330.900 356.527 C 331.290 356.083,331.820 355.305,332.078 354.799 C 332.337 354.293,333.858 351.862,335.458 349.399 C 338.249 345.104,343.370 336.562,346.387 331.173 C 348.712 327.020,352.200 321.199,352.962 320.201 C 353.352 319.690,353.856 318.769,354.084 318.154 C 354.311 317.538,355.665 314.516,357.092 311.438 C 358.520 308.360,360.107 304.737,360.620 303.387 C 362.325 298.899,363.590 296.401,364.847 295.042 C 365.150 294.715,365.455 294.103,365.532 293.667 C 365.818 292.056,369.154 282.909,373.162 272.749 C 376.559 264.138,379.741 253.692,382.640 241.630 C 383.445 238.282,384.724 233.112,385.482 230.142 C 390.070 212.170,392.791 195.774,394.492 175.847 C 396.698 150.007,397.133 142.772,397.447 126.657 C 397.641 116.713,397.810 112.818,398.715 97.496 C 399.465 84.795,399.604 81.538,399.709 74.227 C 399.763 70.501,399.848 65.673,399.899 63.498 L 399.990 59.544 392.386 58.049 C 382.209 56.049,376.569 55.078,372.890 54.692 C 369.784 54.367,366.166 53.780,357.192 52.144 C 354.438 51.642,350.947 51.012,349.435 50.743 C 347.923 50.474,343.684 49.637,340.015 48.884 C 336.347 48.130,331.884 47.299,330.099 47.038 C 328.024 46.734,325.118 46.103,322.042 45.289 C 319.396 44.588,316.082 43.780,314.678 43.493 C 310.424 42.623,306.248 41.498,302.013 40.078 C 299.799 39.336,297.457 38.622,296.809 38.492 C 289.761 37.081,283.902 35.133,281.227 33.312 C 280.649 32.919,280.051 32.597,279.897 32.597 C 278.528 32.597,265.934 27.944,258.910 24.843 C 256.642 23.841,254.300 22.866,253.706 22.675 C 251.733 22.042,241.153 17.501,235.444 14.837 C 233.662 14.006,230.260 12.429,227.884 11.333 C 221.537 8.407,209.495 2.363,207.490 1.098 L 205.750 0.000 200.126 0.015 L 194.502 0.030 193.225 0.909 M203.123 15.949 C 203.869 16.179,205.990 17.148,207.836 18.101 C 216.104 22.372,221.375 24.948,228.964 28.427 C 247.474 36.912,261.822 42.728,280.511 49.325 C 293.933 54.062,308.496 57.832,329.210 61.933 C 334.529 62.986,336.887 63.385,349.043 65.295 C 367.764 68.235,380.362 70.557,383.285 71.605 L 384.733 72.125 384.606 75.679 C 384.536 77.635,384.392 83.299,384.285 88.267 C 383.985 102.234,383.677 109.201,382.526 128.031 C 381.730 141.053,381.391 147.670,381.152 154.836 C 380.059 187.596,377.149 206.930,367.986 242.317 C 362.049 265.245,354.032 286.791,344.132 306.431 C 337.282 320.022,330.285 331.781,319.909 347.144 C 313.210 357.062,306.385 366.457,301.910 371.919 C 274.190 405.758,232.379 439.899,203.535 452.248 C 199.292 454.065,196.983 453.525,188.088 448.637 C 163.857 435.319,134.345 412.028,113.827 390.030 C 96.285 371.222,89.898 362.949,73.541 337.850 C 71.295 334.402,65.888 325.511,64.108 322.337 C 63.260 320.825,61.869 318.351,61.018 316.838 C 52.291 301.339,42.930 278.579,35.376 254.492 C 30.435 238.735,24.163 211.958,22.498 199.509 C 19.913 180.183,16.723 134.388,15.511 99.182 C 15.231 91.064,15.036 74.513,15.205 73.179 C 15.339 72.110,15.395 72.014,16.027 71.750 C 18.717 70.626,38.292 67.135,56.652 64.505 C 67.037 63.017,74.932 61.490,88.660 58.313 C 101.540 55.333,117.803 50.333,133.333 44.580 C 137.211 43.144,150.856 37.584,154.980 35.760 C 157.436 34.674,160.264 33.437,161.264 33.010 C 162.925 32.302,164.492 31.575,173.785 27.199 C 175.459 26.411,180.584 23.863,185.174 21.537 C 197.981 15.048,199.087 14.704,203.123 15.949 M199.411 26.876 C 197.113 27.795,190.302 30.920,184.325 33.798 C 181.212 35.298,178.630 36.524,178.588 36.524 C 178.546 36.524,175.703 37.885,172.270 39.549 C 163.347 43.873,157.823 46.300,146.328 50.945 C 125.614 59.317,108.358 64.612,88.463 68.704 C 78.627 70.727,69.173 72.505,59.597 74.132 C 49.718 75.812,29.296 79.622,29.094 79.824 C 28.854 80.063,28.823 95.653,29.049 102.405 C 29.441 114.145,30.140 127.985,31.225 145.508 C 32.249 162.041,32.391 164.540,32.697 171.429 C 33.850 197.370,38.414 222.495,47.037 250.368 C 47.755 252.690,48.595 255.430,48.903 256.456 C 50.071 260.345,55.038 274.271,56.993 279.136 C 61.180 289.558,62.829 293.310,68.128 304.467 C 72.454 313.575,82.660 331.084,90.391 342.661 C 103.701 362.593,120.940 382.147,139.224 398.052 C 140.142 398.851,141.738 400.256,142.769 401.176 C 160.951 417.381,177.967 429.603,192.827 437.131 L 198.025 439.764 199.798 439.759 C 201.883 439.753,202.295 439.606,208.052 436.830 C 213.842 434.037,220.824 429.976,229.190 424.536 C 235.610 420.361,241.542 415.690,251.743 406.778 C 252.985 405.693,254.885 404.039,255.965 403.101 C 258.519 400.884,261.457 398.295,265.585 394.622 C 289.635 373.228,310.644 345.990,328.082 313.598 C 338.305 294.610,346.739 274.593,352.777 254.991 C 358.698 235.769,364.134 212.403,365.916 198.507 C 366.903 190.816,369.476 155.969,370.344 138.537 C 371.393 117.469,371.897 101.782,371.972 87.889 L 372.018 79.459 362.199 77.734 C 356.799 76.785,347.609 75.207,341.777 74.227 C 320.986 70.735,310.588 68.661,298.969 65.691 C 276.988 60.071,253.675 51.271,228.081 38.932 C 212.539 31.440,201.308 26.242,200.827 26.320 C 200.804 26.324,200.167 26.574,199.411 26.876 M108.591 132.654 C 128.457 134.525,141.393 141.321,155.977 157.548 C 160.570 162.657,165.538 169.075,165.538 169.898 C 165.538 170.005,166.010 170.636,166.589 171.300 C 171.852 177.352,189.736 207.086,197.815 223.218 C 198.639 224.864,200.251 227.952,201.396 230.080 C 202.542 232.207,203.896 234.837,204.405 235.923 C 206.417 240.216,217.402 259.809,222.521 268.238 C 227.577 276.560,234.734 287.190,239.660 293.693 C 240.435 294.716,241.192 294.516,241.404 293.233 C 241.613 291.971,241.551 228.324,241.315 201.767 C 241.064 173.492,241.215 161.491,241.832 160.549 L 242.166 160.039 248.623 160.039 L 255.081 160.039 255.130 205.351 C 255.196 266.765,255.194 271.401,255.081 290.231 C 254.965 309.621,254.883 308.538,256.567 309.878 C 264.068 315.847,275.152 320.540,283.546 321.300 C 287.724 321.679,295.231 320.881,303.044 319.229 C 304.693 318.880,304.734 319.048,303.338 320.411 C 300.416 323.265,294.167 326.482,287.276 328.682 C 269.970 334.207,244.609 331.759,229.848 323.137 C 221.902 318.496,208.832 306.118,203.085 297.791 C 202.265 296.603,200.390 293.996,198.919 291.998 C 192.151 282.806,185.096 271.903,183.711 268.495 C 183.442 267.833,182.659 266.421,181.971 265.359 C 180.048 262.389,174.538 252.746,170.993 246.146 C 170.180 244.634,168.606 241.718,167.494 239.666 C 166.382 237.614,165.144 235.228,164.743 234.364 C 164.343 233.500,163.380 231.741,162.603 230.455 C 160.765 227.413,159.733 225.343,159.331 223.894 C 159.046 222.871,158.947 222.729,158.541 222.752 L 158.076 222.779 158.076 268.122 L 158.076 313.466 151.365 313.335 C 147.675 313.263,144.604 313.153,144.542 313.090 C 144.479 313.027,144.471 294.847,144.523 272.688 C 144.575 250.530,144.619 224.801,144.621 215.513 L 144.624 198.625 144.158 197.349 C 143.674 196.027,142.939 194.847,136.025 184.291 C 131.656 177.621,128.825 173.713,125.355 169.562 C 124.181 168.157,122.042 165.576,120.601 163.826 C 118.873 161.728,117.695 160.477,117.139 160.152 C 116.676 159.880,114.773 158.408,112.911 156.880 C 106.555 151.666,104.017 149.914,99.264 147.456 C 89.289 142.298,81.796 141.434,67.893 143.839 C 65.760 144.208,63.330 144.570,62.493 144.643 L 60.972 144.777 62.739 143.346 C 73.609 134.550,89.462 130.853,108.591 132.654 " stroke="none" fill="#040404" fill-rule="evenodd"></path><path id="path2" d="M187.874 3.843 C 187.140 4.242,187.185 4.407,187.923 4.026 C 188.247 3.858,188.513 3.679,188.513 3.628 C 188.513 3.501,188.491 3.509,187.874 3.843 M372.950 54.725 C 373.139 54.775,373.449 54.775,373.638 54.725 C 373.827 54.676,373.672 54.636,373.294 54.636 C 372.916 54.636,372.761 54.676,372.950 54.725 M374.914 54.922 C 375.103 54.971,375.412 54.971,375.601 54.922 C 375.790 54.872,375.636 54.832,375.258 54.832 C 374.880 54.832,374.725 54.872,374.914 54.922 M399.871 63.525 C 399.872 64.389,399.906 64.718,399.948 64.256 C 399.989 63.794,399.989 63.087,399.946 62.685 C 399.904 62.283,399.870 62.661,399.871 63.525 M0.253 69.416 C 0.254 69.956,0.292 70.153,0.337 69.855 C 0.382 69.556,0.381 69.115,0.335 68.873 C 0.288 68.632,0.251 68.876,0.253 69.416 M384.557 74.325 C 384.556 75.297,384.589 75.719,384.630 75.264 C 384.672 74.808,384.672 74.013,384.632 73.496 C 384.591 72.980,384.557 73.353,384.557 74.325 M15.209 80.020 C 15.209 83.908,15.235 85.526,15.267 83.616 C 15.299 81.706,15.299 78.525,15.267 76.547 C 15.235 74.569,15.209 76.132,15.209 80.020 M0.452 77.565 C 0.452 78.159,0.488 78.402,0.533 78.105 C 0.578 77.808,0.578 77.322,0.533 77.025 C 0.488 76.728,0.452 76.971,0.452 77.565 M399.661 77.565 C 399.661 78.051,399.699 78.250,399.746 78.007 C 399.793 77.764,399.793 77.366,399.746 77.123 C 399.699 76.880,399.661 77.079,399.661 77.565 M28.945 79.803 C 28.887 79.953,28.875 80.417,28.918 80.834 C 28.994 81.564,28.997 81.558,29.029 80.672 C 29.054 79.980,29.147 79.732,29.406 79.664 C 29.728 79.580,29.728 79.573,29.400 79.551 C 29.207 79.539,29.003 79.652,28.945 79.803 M384.360 81.787 C 384.360 82.759,384.393 83.181,384.434 82.726 C 384.475 82.270,384.476 81.475,384.435 80.958 C 384.395 80.442,384.361 80.815,384.360 81.787 M399.460 83.358 C 399.463 83.790,399.503 83.943,399.550 83.699 C 399.597 83.455,399.595 83.102,399.546 82.914 C 399.497 82.726,399.458 82.926,399.460 83.358 M0.635 84.045 C 0.635 84.423,0.675 84.578,0.724 84.389 C 0.774 84.200,0.774 83.891,0.724 83.702 C 0.675 83.513,0.635 83.667,0.635 84.045 M28.756 89.838 C 28.755 92.754,28.783 93.974,28.816 92.550 C 28.850 91.125,28.850 88.739,28.816 87.248 C 28.783 85.756,28.756 86.922,28.756 89.838 M384.169 90.427 C 384.170 91.723,384.201 92.228,384.240 91.549 C 384.278 90.869,384.278 89.809,384.239 89.192 C 384.200 88.575,384.169 89.131,384.169 90.427 M0.831 88.954 C 0.831 89.332,0.871 89.487,0.921 89.298 C 0.970 89.109,0.970 88.800,0.921 88.611 C 0.871 88.422,0.831 88.576,0.831 88.954 M371.998 92.391 C 371.998 94.011,372.029 94.647,372.066 93.805 C 372.103 92.964,372.102 91.638,372.065 90.860 C 372.028 90.082,371.998 90.771,371.998 92.391 M15.388 93.962 C 15.389 95.042,15.422 95.459,15.462 94.888 C 15.501 94.317,15.501 93.434,15.461 92.924 C 15.420 92.415,15.388 92.882,15.388 93.962 M1.027 93.667 C 1.027 94.045,1.068 94.200,1.117 94.011 C 1.167 93.822,1.167 93.513,1.117 93.324 C 1.068 93.135,1.027 93.289,1.027 93.667 M383.962 98.478 C 383.963 99.234,383.999 99.519,384.041 99.112 C 384.084 98.705,384.083 98.086,384.040 97.737 C 383.996 97.389,383.961 97.722,383.962 98.478 M1.228 98.478 C 1.230 98.910,1.270 99.064,1.317 98.820 C 1.364 98.575,1.362 98.222,1.313 98.034 C 1.264 97.846,1.226 98.046,1.228 98.478 M15.582 100.344 C 15.582 101.262,15.615 101.637,15.657 101.178 C 15.698 100.719,15.698 99.968,15.657 99.509 C 15.615 99.050,15.582 99.426,15.582 100.344 M28.937 101.522 C 28.937 102.548,28.970 102.968,29.010 102.455 C 29.051 101.942,29.051 101.102,29.010 100.589 C 28.970 100.076,28.937 100.496,28.937 101.522 M371.796 102.307 C 371.796 103.441,371.828 103.905,371.868 103.338 C 371.908 102.771,371.908 101.843,371.868 101.276 C 371.828 100.709,371.796 101.173,371.796 102.307 M1.424 103.191 C 1.426 103.623,1.466 103.777,1.513 103.532 C 1.560 103.288,1.559 102.935,1.509 102.747 C 1.460 102.559,1.422 102.759,1.424 103.191 M383.755 104.075 C 383.755 104.561,383.793 104.759,383.840 104.516 C 383.887 104.273,383.887 103.876,383.840 103.633 C 383.793 103.390,383.755 103.589,383.755 104.075 M398.278 104.664 C 398.278 105.042,398.319 105.196,398.368 105.007 C 398.417 104.818,398.417 104.509,398.368 104.320 C 398.319 104.131,398.278 104.286,398.278 104.664 M15.772 106.235 C 15.772 106.937,15.808 107.224,15.851 106.873 C 15.895 106.522,15.895 105.947,15.851 105.596 C 15.808 105.245,15.772 105.533,15.772 106.235 M29.128 107.020 C 29.128 107.830,29.163 108.162,29.205 107.757 C 29.248 107.351,29.248 106.689,29.205 106.284 C 29.163 105.879,29.128 106.210,29.128 107.020 M1.620 108.100 C 1.623 108.532,1.663 108.686,1.710 108.442 C 1.757 108.197,1.755 107.844,1.706 107.656 C 1.657 107.468,1.618 107.668,1.620 108.100 M371.595 108.984 C 371.595 109.902,371.629 110.277,371.671 109.818 C 371.712 109.359,371.712 108.608,371.671 108.149 C 371.629 107.690,371.595 108.066,371.595 108.984 M398.082 108.002 C 398.082 108.380,398.122 108.535,398.172 108.346 C 398.221 108.157,398.221 107.847,398.172 107.658 C 398.122 107.469,398.082 107.624,398.082 108.002 M383.555 108.493 C 383.557 108.925,383.597 109.078,383.644 108.834 C 383.691 108.590,383.689 108.237,383.640 108.049 C 383.591 107.861,383.552 108.061,383.555 108.493 M15.967 110.849 C 15.968 111.497,16.004 111.739,16.048 111.386 C 16.092 111.033,16.091 110.503,16.046 110.208 C 16.001 109.913,15.965 110.201,15.967 110.849 M29.323 112.027 C 29.324 112.784,29.360 113.069,29.402 112.661 C 29.445 112.254,29.444 111.635,29.400 111.287 C 29.357 110.938,29.322 111.271,29.323 112.027 M397.889 111.831 C 397.892 112.263,397.932 112.417,397.979 112.172 C 398.026 111.928,398.024 111.575,397.975 111.387 C 397.926 111.199,397.887 111.399,397.889 111.831 M383.354 112.518 C 383.354 112.896,383.395 113.051,383.444 112.862 C 383.494 112.673,383.494 112.364,383.444 112.175 C 383.395 111.986,383.354 112.140,383.354 112.518 M1.817 112.813 C 1.819 113.245,1.859 113.399,1.906 113.154 C 1.953 112.910,1.951 112.557,1.902 112.369 C 1.853 112.181,1.815 112.381,1.817 112.813 M371.399 115.268 C 371.399 116.186,371.433 116.561,371.474 116.102 C 371.516 115.643,371.516 114.892,371.474 114.433 C 371.433 113.974,371.399 114.350,371.399 115.268 M16.158 115.366 C 16.160 115.906,16.198 116.103,16.243 115.805 C 16.288 115.506,16.287 115.065,16.240 114.823 C 16.194 114.582,16.157 114.826,16.158 115.366 M29.518 116.053 C 29.518 116.755,29.554 117.042,29.597 116.691 C 29.641 116.340,29.641 115.766,29.597 115.415 C 29.554 115.064,29.518 115.351,29.518 116.053 M397.697 116.053 C 397.697 116.539,397.735 116.738,397.782 116.495 C 397.829 116.252,397.829 115.854,397.782 115.611 C 397.735 115.368,397.697 115.567,397.697 116.053 M383.158 116.053 C 383.158 116.431,383.198 116.586,383.248 116.397 C 383.297 116.208,383.297 115.898,383.248 115.709 C 383.198 115.520,383.158 115.675,383.158 116.053 M2.017 117.624 C 2.017 118.110,2.055 118.309,2.102 118.066 C 2.149 117.823,2.149 117.425,2.102 117.182 C 2.055 116.939,2.017 117.138,2.017 117.624 M16.355 119.489 C 16.356 120.029,16.394 120.227,16.439 119.929 C 16.485 119.630,16.483 119.188,16.437 118.947 C 16.390 118.705,16.353 118.949,16.355 119.489 M371.200 120.177 C 371.200 120.987,371.235 121.318,371.277 120.913 C 371.319 120.508,371.319 119.845,371.277 119.440 C 371.235 119.035,371.200 119.367,371.200 120.177 M29.710 120.373 C 29.710 120.967,29.747 121.210,29.792 120.913 C 29.837 120.616,29.837 120.130,29.792 119.833 C 29.747 119.536,29.710 119.779,29.710 120.373 M397.515 121.846 C 397.515 122.710,397.550 123.039,397.591 122.577 C 397.633 122.115,397.632 121.408,397.590 121.006 C 397.548 120.604,397.514 120.982,397.515 121.846 M2.214 122.337 C 2.214 122.823,2.252 123.022,2.299 122.779 C 2.345 122.536,2.345 122.138,2.299 121.895 C 2.252 121.652,2.214 121.851,2.214 122.337 M382.765 122.730 C 382.765 123.108,382.806 123.262,382.855 123.073 C 382.904 122.884,382.904 122.575,382.855 122.386 C 382.806 122.197,382.765 122.351,382.765 122.730 M16.544 123.613 C 16.547 124.045,16.587 124.199,16.634 123.955 C 16.681 123.710,16.679 123.357,16.630 123.169 C 16.581 122.981,16.542 123.181,16.544 123.613 M29.904 123.810 C 29.905 124.350,29.944 124.547,29.989 124.249 C 30.034 123.950,30.033 123.508,29.986 123.267 C 29.939 123.025,29.903 123.270,29.904 123.810 M371.001 125.086 C 371.001 125.788,371.036 126.075,371.080 125.724 C 371.123 125.373,371.123 124.799,371.080 124.448 C 371.036 124.097,371.001 124.384,371.001 125.086 M2.413 127.344 C 2.414 127.884,2.452 128.082,2.497 127.783 C 2.542 127.485,2.541 127.043,2.495 126.801 C 2.448 126.560,2.411 126.804,2.413 127.344 M16.741 127.344 C 16.743 127.776,16.783 127.930,16.830 127.685 C 16.877 127.441,16.875 127.088,16.826 126.900 C 16.777 126.712,16.739 126.912,16.741 127.344 M30.090 127.835 C 30.090 128.213,30.130 128.368,30.180 128.179 C 30.229 127.990,30.229 127.680,30.180 127.491 C 30.130 127.302,30.090 127.457,30.090 127.835 M370.804 129.210 C 370.804 129.912,370.840 130.199,370.883 129.848 C 370.927 129.497,370.927 128.922,370.883 128.571 C 370.840 128.220,370.804 128.508,370.804 129.210 M16.937 131.075 C 16.939 131.507,16.979 131.661,17.026 131.416 C 17.073 131.172,17.072 130.819,17.022 130.631 C 16.973 130.443,16.935 130.643,16.937 131.075 M30.286 131.173 C 30.286 131.551,30.327 131.706,30.376 131.517 C 30.425 131.328,30.425 131.019,30.376 130.830 C 30.327 130.641,30.286 130.795,30.286 131.173 M2.609 132.057 C 2.610 132.597,2.649 132.795,2.694 132.496 C 2.739 132.198,2.738 131.756,2.691 131.514 C 2.644 131.273,2.607 131.517,2.609 132.057 M397.322 133.530 C 397.322 134.556,397.355 134.975,397.395 134.462 C 397.436 133.949,397.436 133.110,397.395 132.597 C 397.355 132.084,397.322 132.504,397.322 133.530 M97.938 132.301 C 98.721 132.338,100.002 132.338,100.785 132.301 C 101.568 132.264,100.928 132.233,99.362 132.233 C 97.796 132.233,97.155 132.264,97.938 132.301 M370.604 133.530 C 370.604 134.124,370.641 134.367,370.686 134.070 C 370.731 133.773,370.731 133.287,370.686 132.990 C 370.641 132.693,370.604 132.936,370.604 133.530 M2.805 136.966 C 2.807 137.506,2.845 137.704,2.890 137.405 C 2.935 137.107,2.934 136.665,2.887 136.423 C 2.841 136.182,2.804 136.426,2.805 136.966 M370.405 137.162 C 370.406 137.703,370.444 137.900,370.489 137.602 C 370.535 137.303,370.533 136.861,370.487 136.620 C 370.440 136.378,370.403 136.622,370.405 137.162 M397.113 139.617 C 397.113 140.211,397.150 140.454,397.195 140.157 C 397.240 139.860,397.240 139.374,397.195 139.077 C 397.150 138.780,397.113 139.023,397.113 139.617 M370.198 141.188 C 370.198 141.566,370.238 141.721,370.288 141.532 C 370.337 141.343,370.337 141.033,370.288 140.844 C 370.238 140.655,370.198 140.810,370.198 141.188 M3.004 141.777 C 3.004 142.371,3.041 142.614,3.086 142.317 C 3.131 142.020,3.131 141.534,3.086 141.237 C 3.041 140.940,3.004 141.183,3.004 141.777 M78.801 142.512 C 79.534 142.550,80.683 142.550,81.353 142.511 C 82.024 142.473,81.424 142.442,80.020 142.443 C 78.616 142.443,78.067 142.474,78.801 142.512 M396.912 143.741 C 396.912 144.227,396.950 144.426,396.997 144.183 C 397.044 143.940,397.044 143.542,396.997 143.299 C 396.950 143.056,396.912 143.255,396.912 143.741 M370.001 144.526 C 370.001 144.904,370.042 145.059,370.091 144.870 C 370.141 144.681,370.141 144.372,370.091 144.183 C 370.042 143.994,370.001 144.148,370.001 144.526 M3.203 146.784 C 3.204 147.432,3.240 147.674,3.284 147.321 C 3.328 146.968,3.327 146.438,3.282 146.143 C 3.237 145.848,3.202 146.136,3.203 146.784 M396.715 147.275 C 396.715 147.761,396.754 147.960,396.800 147.717 C 396.847 147.474,396.847 147.077,396.800 146.834 C 396.754 146.591,396.715 146.789,396.715 147.275 M396.519 150.221 C 396.519 150.707,396.557 150.906,396.604 150.663 C 396.651 150.420,396.651 150.022,396.604 149.779 C 396.557 149.536,396.519 149.735,396.519 150.221 M3.399 151.497 C 3.400 152.145,3.437 152.387,3.481 152.034 C 3.524 151.681,3.523 151.151,3.479 150.856 C 3.434 150.561,3.398 150.849,3.399 151.497 M381.194 151.203 C 381.194 151.581,381.235 151.735,381.284 151.546 C 381.334 151.357,381.334 151.048,381.284 150.859 C 381.235 150.670,381.194 150.825,381.194 151.203 M396.325 153.265 C 396.327 153.805,396.365 154.002,396.410 153.704 C 396.455 153.405,396.454 152.963,396.407 152.722 C 396.361 152.480,396.324 152.725,396.325 153.265 M153.461 154.934 C 153.883 155.366,154.272 155.719,154.326 155.719 C 154.380 155.719,154.079 155.366,153.657 154.934 C 153.235 154.502,152.846 154.148,152.792 154.148 C 152.738 154.148,153.039 154.502,153.461 154.934 M396.122 155.817 C 396.124 156.249,396.165 156.403,396.212 156.159 C 396.259 155.914,396.257 155.561,396.208 155.373 C 396.158 155.186,396.120 155.385,396.122 155.817 M3.597 156.505 C 3.597 157.207,3.633 157.494,3.677 157.143 C 3.720 156.792,3.720 156.217,3.677 155.866 C 3.633 155.515,3.597 155.803,3.597 156.505 M381.006 156.701 C 381.006 157.187,381.044 157.386,381.091 157.143 C 381.138 156.900,381.138 156.502,381.091 156.259 C 381.044 156.016,381.006 156.215,381.006 156.701 M395.926 158.567 C 395.928 158.999,395.968 159.152,396.015 158.908 C 396.062 158.664,396.060 158.310,396.011 158.122 C 395.962 157.935,395.924 158.135,395.926 158.567 M3.795 161.316 C 3.796 162.072,3.832 162.357,3.874 161.949 C 3.917 161.542,3.916 160.924,3.873 160.575 C 3.829 160.226,3.795 160.560,3.795 161.316 M242.052 160.187 C 242.002 160.268,243.124 160.311,244.545 160.283 C 249.242 160.190,249.732 160.117,245.912 160.078 C 243.840 160.057,242.103 160.106,242.052 160.187 M395.729 160.923 C 395.732 161.355,395.772 161.509,395.819 161.264 C 395.866 161.020,395.864 160.667,395.815 160.479 C 395.766 160.291,395.727 160.491,395.729 160.923 M380.802 162.592 C 380.802 162.970,380.842 163.125,380.891 162.936 C 380.941 162.747,380.941 162.437,380.891 162.248 C 380.842 162.059,380.802 162.214,380.802 162.592 M395.529 163.378 C 395.529 163.756,395.570 163.910,395.619 163.721 C 395.668 163.532,395.668 163.223,395.619 163.034 C 395.570 162.845,395.529 163.000,395.529 163.378 M241.398 164.359 C 241.398 165.061,241.434 165.349,241.477 164.998 C 241.521 164.647,241.521 164.072,241.477 163.721 C 241.434 163.370,241.398 163.657,241.398 164.359 M395.333 165.734 C 395.333 166.112,395.373 166.267,395.423 166.078 C 395.472 165.889,395.472 165.579,395.423 165.390 C 395.373 165.201,395.333 165.356,395.333 165.734 M32.446 167.501 C 32.446 167.879,32.487 168.034,32.536 167.845 C 32.585 167.656,32.585 167.347,32.536 167.158 C 32.487 166.969,32.446 167.123,32.446 167.501 M165.538 170.312 C 165.538 170.346,165.825 170.633,166.176 170.950 L 166.814 171.527 166.237 170.889 C 165.700 170.294,165.538 170.160,165.538 170.312 M32.646 171.919 C 32.649 172.351,32.689 172.505,32.736 172.261 C 32.783 172.017,32.781 171.663,32.732 171.475 C 32.683 171.288,32.644 171.487,32.646 171.919 M241.231 182.425 C 241.231 188.419,241.256 190.871,241.286 187.874 C 241.317 184.877,241.317 179.973,241.286 176.976 C 241.256 173.979,241.231 176.431,241.231 182.425 M380.016 175.552 C 380.016 175.930,380.057 176.085,380.106 175.896 C 380.155 175.707,380.155 175.398,380.106 175.209 C 380.057 175.020,380.016 175.174,380.016 175.552 M32.839 176.534 C 32.839 176.912,32.879 177.067,32.929 176.878 C 32.978 176.689,32.978 176.379,32.929 176.190 C 32.879 176.001,32.839 176.156,32.839 176.534 M379.820 177.909 C 379.820 178.287,379.860 178.441,379.910 178.252 C 379.959 178.063,379.959 177.754,379.910 177.565 C 379.860 177.376,379.820 177.531,379.820 177.909 M20.271 178.498 C 20.271 178.876,20.312 179.030,20.361 178.841 C 20.411 178.652,20.411 178.343,20.361 178.154 C 20.312 177.965,20.271 178.120,20.271 178.498 M379.623 180.069 C 379.623 180.447,379.664 180.601,379.713 180.412 C 379.763 180.223,379.763 179.914,379.713 179.725 C 379.664 179.536,379.623 179.691,379.623 180.069 M20.468 180.658 C 20.468 181.036,20.508 181.190,20.558 181.001 C 20.607 180.812,20.607 180.503,20.558 180.314 C 20.508 180.125,20.468 180.280,20.468 180.658 M20.664 182.818 C 20.664 183.196,20.705 183.351,20.754 183.162 C 20.803 182.973,20.803 182.663,20.754 182.474 C 20.705 182.285,20.664 182.440,20.664 182.818 M20.860 184.978 C 20.860 185.356,20.901 185.511,20.950 185.322 C 21.000 185.133,21.000 184.823,20.950 184.634 C 20.901 184.445,20.860 184.600,20.860 184.978 M21.253 188.905 C 21.253 189.283,21.294 189.438,21.343 189.249 C 21.392 189.060,21.392 188.751,21.343 188.562 C 21.294 188.373,21.253 188.527,21.253 188.905 M144.808 207.658 C 144.808 210.358,144.835 211.490,144.869 210.173 C 144.903 208.857,144.903 206.648,144.869 205.264 C 144.836 203.881,144.808 204.958,144.808 207.658 M241.420 211.193 C 241.420 213.785,241.448 214.818,241.482 213.489 C 241.516 212.160,241.516 210.039,241.482 208.776 C 241.448 207.513,241.420 208.601,241.420 211.193 M157.974 241.630 C 157.974 252.106,157.997 256.363,158.026 251.090 C 158.056 245.816,158.056 237.245,158.026 232.042 C 157.997 226.839,157.974 231.154,157.974 241.630 M144.609 236.328 C 144.610 238.596,144.638 239.497,144.673 238.330 C 144.708 237.163,144.708 235.307,144.673 234.206 C 144.638 233.105,144.609 234.060,144.609 236.328 M255.131 251.252 C 255.133 251.684,255.173 251.837,255.220 251.593 C 255.267 251.349,255.265 250.995,255.216 250.808 C 255.167 250.620,255.128 250.820,255.131 251.252 M144.412 265.587 C 144.412 267.639,144.441 268.451,144.476 267.393 C 144.512 266.334,144.512 264.655,144.476 263.662 C 144.441 262.668,144.412 263.535,144.412 265.587 M255.157 271.379 C 255.157 272.730,255.188 273.282,255.226 272.607 C 255.265 271.932,255.265 270.827,255.226 270.152 C 255.188 269.477,255.157 270.029,255.157 271.379 M254.962 286.107 C 254.962 287.565,254.992 288.162,255.030 287.432 C 255.068 286.703,255.068 285.511,255.030 284.782 C 254.992 284.053,254.962 284.649,254.962 286.107 M241.611 289.642 C 241.611 291.316,241.641 292.000,241.678 291.163 C 241.714 290.326,241.714 288.957,241.678 288.120 C 241.641 287.283,241.611 287.968,241.611 289.642 M144.407 303.878 C 144.408 305.390,144.439 305.983,144.476 305.195 C 144.513 304.407,144.513 303.170,144.475 302.446 C 144.438 301.722,144.407 302.366,144.407 303.878 M208.542 304.431 C 208.542 304.464,208.829 304.752,209.180 305.069 L 209.818 305.646 209.242 305.007 C 208.704 304.412,208.542 304.279,208.542 304.431 M254.941 305.253 C 254.942 305.793,254.980 305.990,255.026 305.692 C 255.071 305.393,255.069 304.952,255.023 304.710 C 254.976 304.469,254.939 304.713,254.941 305.253 M212.469 308.751 C 212.469 308.784,212.757 309.072,213.108 309.389 L 213.746 309.966 213.169 309.327 C 212.631 308.733,212.469 308.599,212.469 308.751 M216.978 313.255 C 217.791 314.122,217.968 314.278,217.968 314.130 C 217.968 314.099,217.548 313.679,217.035 313.197 L 216.102 312.322 216.978 313.255 M150.270 313.351 C 150.891 313.390,151.907 313.390,152.528 313.351 C 153.149 313.312,152.641 313.280,151.399 313.280 C 150.157 313.280,149.649 313.312,150.270 313.351 M260.039 331.407 C 260.228 331.456,260.538 331.456,260.727 331.407 C 260.916 331.357,260.761 331.317,260.383 331.317 C 260.005 331.317,259.850 331.357,260.039 331.407 M271.821 331.407 C 272.010 331.456,272.320 331.456,272.509 331.407 C 272.698 331.357,272.543 331.317,272.165 331.317 C 271.787 331.317,271.632 331.357,271.821 331.407 M265.631 331.610 C 265.980 331.653,266.599 331.654,267.006 331.611 C 267.413 331.569,267.128 331.533,266.372 331.532 C 265.616 331.531,265.283 331.566,265.631 331.610 M113.697 372.963 C 113.697 372.997,113.984 373.284,114.335 373.601 L 114.973 374.178 114.396 373.540 C 113.859 372.945,113.697 372.811,113.697 372.963 M115.660 375.123 C 115.660 375.157,115.947 375.444,116.298 375.761 L 116.937 376.338 116.360 375.700 C 115.822 375.105,115.660 374.971,115.660 375.123 M118.704 378.400 C 119.345 379.048,119.914 379.578,119.968 379.578 C 120.022 379.578,119.542 379.048,118.900 378.400 C 118.259 377.752,117.690 377.221,117.636 377.221 C 117.582 377.221,118.063 377.752,118.704 378.400 M280.505 380.216 L 279.136 381.640 280.560 380.270 C 281.882 378.999,282.073 378.792,281.929 378.792 C 281.899 378.792,281.258 379.433,280.505 380.216 M314.384 379.872 C 313.907 380.358,313.561 380.756,313.615 380.756 C 313.669 380.756,314.103 380.358,314.580 379.872 C 315.057 379.386,315.403 378.989,315.349 378.989 C 315.295 378.989,314.861 379.386,314.384 379.872 M105.253 380.817 C 105.253 380.851,105.540 381.138,105.891 381.456 L 106.529 382.032 105.952 381.394 C 105.415 380.799,105.253 380.666,105.253 380.817 M292.280 382.965 L 291.703 383.603 292.342 383.027 C 292.937 382.489,293.070 382.327,292.918 382.327 C 292.885 382.327,292.597 382.614,292.280 382.965 M124.300 384.192 C 125.214 385.110,126.005 385.862,126.059 385.862 C 126.113 385.862,125.410 385.110,124.497 384.192 C 123.584 383.274,122.792 382.523,122.738 382.523 C 122.684 382.523,123.387 383.274,124.300 384.192 M107.413 383.174 C 107.413 383.208,107.700 383.495,108.051 383.812 L 108.689 384.389 108.113 383.751 C 107.575 383.156,107.413 383.022,107.413 383.174 M290.513 384.929 L 289.936 385.567 290.574 384.990 C 291.169 384.453,291.303 384.291,291.151 384.291 C 291.117 384.291,290.830 384.578,290.513 384.929 M109.966 385.960 C 110.332 386.338,110.676 386.647,110.730 386.647 C 110.784 386.647,110.528 386.338,110.162 385.960 C 109.796 385.582,109.452 385.272,109.398 385.272 C 109.344 385.272,109.599 385.582,109.966 385.960 M287.377 388.267 L 286.205 389.494 287.432 388.322 C 288.108 387.678,288.660 387.125,288.660 387.095 C 288.660 386.950,288.466 387.127,287.377 388.267 M271.570 389.151 L 270.299 390.476 271.625 389.205 C 272.856 388.025,273.040 387.825,272.896 387.825 C 272.866 387.825,272.269 388.422,271.570 389.151 M112.911 389.065 C 112.911 389.099,113.198 389.386,113.549 389.703 L 114.188 390.280 113.611 389.642 C 113.073 389.047,112.911 388.913,112.911 389.065 M130.388 390.083 C 130.974 390.677,131.499 391.163,131.553 391.163 C 131.607 391.163,131.171 390.677,130.584 390.083 C 129.998 389.489,129.473 389.003,129.419 389.003 C 129.365 389.003,129.801 389.489,130.388 390.083 M280.607 395.238 L 276.387 399.509 280.658 395.289 C 283.007 392.968,284.929 391.046,284.929 391.018 C 284.929 390.879,284.528 391.270,280.607 395.238 M116.053 392.440 C 116.640 393.034,117.164 393.520,117.218 393.520 C 117.272 393.520,116.836 393.034,116.249 392.440 C 115.663 391.846,115.139 391.360,115.085 391.360 C 115.031 391.360,115.466 391.846,116.053 392.440 M133.235 392.734 C 133.657 393.166,134.046 393.520,134.100 393.520 C 134.154 393.520,133.853 393.166,133.432 392.734 C 133.010 392.302,132.620 391.949,132.566 391.949 C 132.512 391.949,132.813 392.302,133.235 392.734 M96.809 393.225 C 97.175 393.603,97.519 393.913,97.573 393.913 C 97.627 393.913,97.372 393.603,97.005 393.225 C 96.639 392.847,96.295 392.538,96.241 392.538 C 96.187 392.538,96.443 392.847,96.809 393.225 M135.886 395.189 C 136.252 395.567,136.596 395.876,136.650 395.876 C 136.704 395.876,136.449 395.567,136.082 395.189 C 135.716 394.811,135.372 394.502,135.318 394.502 C 135.264 394.502,135.520 394.811,135.886 395.189 M264.789 395.336 L 264.212 395.974 264.850 395.398 C 265.445 394.860,265.579 394.698,265.427 394.698 C 265.393 394.698,265.106 394.985,264.789 395.336 M299.258 397.398 L 297.987 398.724 299.313 397.453 C 300.544 396.273,300.728 396.073,300.583 396.073 C 300.553 396.073,299.957 396.669,299.258 397.398 M140.795 399.472 C 140.795 399.506,141.082 399.793,141.433 400.111 L 142.072 400.687 141.495 400.049 C 140.957 399.454,140.795 399.321,140.795 399.472 M124.300 400.687 C 124.667 401.065,125.011 401.375,125.065 401.375 C 125.119 401.375,124.863 401.065,124.497 400.687 C 124.130 400.309,123.786 400.000,123.732 400.000 C 123.678 400.000,123.934 400.309,124.300 400.687 M273.730 401.915 L 272.459 403.240 273.785 401.969 C 275.016 400.789,275.200 400.589,275.056 400.589 C 275.026 400.589,274.429 401.186,273.730 401.915 M295.422 401.424 L 294.845 402.062 295.484 401.485 C 296.078 400.947,296.212 400.785,296.060 400.785 C 296.027 400.785,295.739 401.073,295.422 401.424 M103.878 401.240 C 103.878 401.273,104.165 401.561,104.516 401.878 L 105.155 402.455 104.578 401.816 C 104.040 401.222,103.878 401.088,103.878 401.240 M128.326 404.516 C 128.748 404.948,129.137 405.302,129.191 405.302 C 129.245 405.302,128.944 404.948,128.522 404.516 C 128.100 404.084,127.711 403.731,127.657 403.731 C 127.603 403.731,127.904 404.084,128.326 404.516 M291.802 405.204 C 291.325 405.690,290.979 406.087,291.033 406.087 C 291.087 406.087,291.521 405.690,291.998 405.204 C 292.475 404.718,292.821 404.320,292.767 404.320 C 292.713 404.320,292.279 404.718,291.802 405.204 M270.287 405.155 L 269.710 405.793 270.349 405.216 C 270.943 404.678,271.077 404.516,270.925 404.516 C 270.892 404.516,270.604 404.804,270.287 405.155 M289.531 407.707 L 288.954 408.346 289.593 407.769 C 289.944 407.452,290.231 407.164,290.231 407.131 C 290.231 406.979,290.069 407.113,289.531 407.707 M265.967 409.082 L 265.390 409.720 266.028 409.143 C 266.379 408.826,266.667 408.539,266.667 408.505 C 266.667 408.354,266.505 408.487,265.967 409.082 M113.402 410.800 C 113.824 411.232,114.213 411.586,114.267 411.586 C 114.321 411.586,114.020 411.232,113.598 410.800 C 113.177 410.368,112.787 410.015,112.733 410.015 C 112.679 410.015,112.980 410.368,113.402 410.800 M283.351 413.893 L 282.278 415.022 283.407 413.949 C 284.456 412.952,284.626 412.764,284.480 412.764 C 284.450 412.764,283.941 413.272,283.351 413.893 M116.838 414.040 C 117.425 414.634,117.949 415.120,118.003 415.120 C 118.057 415.120,117.621 414.634,117.035 414.040 C 116.448 413.446,115.924 412.960,115.870 412.960 C 115.816 412.960,116.252 413.446,116.838 414.040 M119.391 416.360 C 119.391 416.394,119.678 416.681,120.029 416.998 L 120.668 417.575 120.091 416.937 C 119.553 416.342,119.391 416.208,119.391 416.360 M122.140 418.949 C 122.507 419.327,122.851 419.637,122.905 419.637 C 122.959 419.637,122.703 419.327,122.337 418.949 C 121.970 418.571,121.626 418.262,121.572 418.262 C 121.518 418.262,121.774 418.571,122.140 418.949 " stroke="none" fill="#5b5446" fill-rule="evenodd"></path><path id="path3" d="M198.969 15.648 C 199.158 15.698,199.467 15.698,199.656 15.648 C 199.845 15.599,199.691 15.559,199.313 15.559 C 198.935 15.559,198.780 15.599,198.969 15.648 M200.540 15.648 C 200.729 15.698,201.038 15.698,201.227 15.648 C 201.416 15.599,201.262 15.559,200.884 15.559 C 200.506 15.559,200.351 15.599,200.540 15.648 M0.073 64.016 C 0.073 65.150,0.105 65.614,0.145 65.047 C 0.184 64.480,0.184 63.552,0.145 62.985 C 0.105 62.418,0.073 62.882,0.073 64.016 M399.878 67.158 C 399.878 68.400,399.910 68.908,399.949 68.287 C 399.988 67.666,399.988 66.649,399.949 66.028 C 399.910 65.407,399.878 65.916,399.878 67.158 M0.261 71.576 C 0.262 72.332,0.297 72.617,0.340 72.210 C 0.382 71.802,0.381 71.184,0.338 70.835 C 0.295 70.486,0.260 70.820,0.261 71.576 M384.366 77.860 C 384.366 79.156,384.398 79.660,384.436 78.981 C 384.475 78.302,384.474 77.241,384.436 76.625 C 384.397 76.008,384.365 76.564,384.366 77.860 M399.668 79.431 C 399.669 80.079,399.706 80.320,399.750 79.967 C 399.793 79.614,399.792 79.084,399.748 78.789 C 399.703 78.494,399.667 78.783,399.668 79.431 M0.460 80.020 C 0.461 80.884,0.495 81.213,0.537 80.751 C 0.578 80.289,0.578 79.582,0.535 79.180 C 0.493 78.778,0.459 79.156,0.460 80.020 M372.202 85.322 C 372.202 88.238,372.229 89.458,372.263 88.033 C 372.296 86.609,372.296 84.223,372.263 82.731 C 372.229 81.240,372.202 82.405,372.202 85.322 M28.739 82.965 C 28.739 83.937,28.772 84.360,28.813 83.904 C 28.854 83.448,28.855 82.653,28.814 82.137 C 28.774 81.620,28.740 81.993,28.739 82.965 M384.170 85.812 C 384.170 87.162,384.201 87.715,384.240 87.040 C 384.278 86.365,384.278 85.260,384.240 84.585 C 384.201 83.910,384.170 84.462,384.170 85.812 M399.460 84.732 C 399.463 85.164,399.503 85.318,399.550 85.074 C 399.597 84.830,399.595 84.476,399.546 84.288 C 399.497 84.101,399.458 84.300,399.460 84.732 M0.643 85.420 C 0.643 85.906,0.681 86.105,0.728 85.862 C 0.774 85.619,0.774 85.221,0.728 84.978 C 0.681 84.735,0.643 84.934,0.643 85.420 M15.394 89.445 C 15.394 90.957,15.425 91.550,15.463 90.762 C 15.500 89.974,15.500 88.737,15.462 88.013 C 15.424 87.289,15.394 87.933,15.394 89.445 M399.264 88.660 C 399.266 89.092,399.306 89.245,399.353 89.001 C 399.400 88.757,399.399 88.403,399.349 88.216 C 399.300 88.028,399.262 88.228,399.264 88.660 M0.842 90.427 C 0.843 90.967,0.881 91.165,0.926 90.866 C 0.972 90.568,0.970 90.126,0.924 89.884 C 0.877 89.643,0.840 89.887,0.842 90.427 M399.068 92.391 C 399.070 92.823,399.110 92.976,399.157 92.732 C 399.204 92.488,399.202 92.134,399.153 91.947 C 399.104 91.759,399.066 91.959,399.068 92.391 M383.975 94.649 C 383.975 96.107,384.006 96.703,384.044 95.974 C 384.081 95.245,384.081 94.053,384.044 93.324 C 384.006 92.595,383.975 93.191,383.975 94.649 M1.035 95.042 C 1.035 95.528,1.074 95.727,1.120 95.484 C 1.167 95.241,1.167 94.843,1.120 94.600 C 1.074 94.357,1.035 94.556,1.035 95.042 M28.745 97.398 C 28.745 98.748,28.777 99.300,28.815 98.625 C 28.853 97.950,28.853 96.846,28.815 96.171 C 28.777 95.496,28.745 96.048,28.745 97.398 M398.871 95.729 C 398.873 96.161,398.914 96.315,398.961 96.070 C 399.008 95.826,399.006 95.473,398.957 95.285 C 398.908 95.097,398.869 95.297,398.871 95.729 M15.584 97.005 C 15.584 98.031,15.617 98.451,15.657 97.938 C 15.698 97.425,15.698 96.586,15.657 96.073 C 15.617 95.560,15.584 95.979,15.584 97.005 M371.997 97.889 C 371.997 99.401,372.028 99.994,372.065 99.206 C 372.103 98.418,372.103 97.181,372.065 96.457 C 372.027 95.733,371.997 96.377,371.997 97.889 M398.675 99.264 C 398.677 99.696,398.717 99.849,398.764 99.605 C 398.811 99.361,398.809 99.007,398.760 98.820 C 398.711 98.632,398.673 98.832,398.675 99.264 M1.234 100.049 C 1.236 100.589,1.274 100.787,1.319 100.488 C 1.364 100.190,1.363 99.748,1.316 99.506 C 1.270 99.265,1.233 99.509,1.234 100.049 M383.770 101.718 C 383.770 102.636,383.804 103.012,383.845 102.553 C 383.887 102.094,383.887 101.343,383.845 100.884 C 383.804 100.425,383.770 100.800,383.770 101.718 M15.779 103.387 C 15.778 104.359,15.812 104.782,15.853 104.326 C 15.894 103.870,15.895 103.075,15.854 102.559 C 15.813 102.042,15.780 102.415,15.779 103.387 M398.479 102.405 C 398.481 102.838,398.521 102.991,398.568 102.747 C 398.615 102.503,398.613 102.149,398.564 101.961 C 398.515 101.774,398.476 101.973,398.479 102.405 M28.932 104.664 C 28.932 105.474,28.967 105.805,29.009 105.400 C 29.051 104.995,29.051 104.332,29.009 103.927 C 28.967 103.522,28.932 103.854,28.932 104.664 M1.431 104.762 C 1.432 105.302,1.470 105.500,1.515 105.201 C 1.561 104.903,1.559 104.461,1.513 104.219 C 1.466 103.978,1.429 104.222,1.431 104.762 M371.795 106.136 C 371.795 107.216,371.828 107.633,371.868 107.063 C 371.908 106.492,371.907 105.608,371.867 105.099 C 371.827 104.590,371.794 105.056,371.795 106.136 M383.571 106.431 C 383.571 107.241,383.606 107.572,383.648 107.167 C 383.691 106.762,383.691 106.100,383.648 105.695 C 383.606 105.290,383.571 105.621,383.571 106.431 M398.286 106.038 C 398.286 106.524,398.324 106.723,398.371 106.480 C 398.418 106.237,398.418 105.839,398.371 105.596 C 398.324 105.353,398.286 105.552,398.286 106.038 M15.972 108.395 C 15.972 109.205,16.006 109.536,16.049 109.131 C 16.091 108.726,16.091 108.063,16.049 107.658 C 16.006 107.253,15.972 107.585,15.972 108.395 M29.125 109.573 C 29.125 110.275,29.161 110.562,29.204 110.211 C 29.248 109.860,29.248 109.286,29.204 108.935 C 29.161 108.584,29.125 108.871,29.125 109.573 M398.092 109.475 C 398.094 110.015,398.132 110.212,398.177 109.914 C 398.222 109.615,398.221 109.174,398.175 108.932 C 398.128 108.690,398.091 108.935,398.092 109.475 M1.630 109.769 C 1.630 110.363,1.667 110.606,1.712 110.309 C 1.757 110.012,1.757 109.526,1.712 109.229 C 1.667 108.932,1.630 109.175,1.630 109.769 M383.368 110.947 C 383.368 111.541,383.404 111.784,383.449 111.487 C 383.494 111.190,383.494 110.704,383.449 110.407 C 383.404 110.110,383.368 110.353,383.368 110.947 M371.595 112.126 C 371.595 113.044,371.629 113.419,371.671 112.960 C 371.712 112.501,371.712 111.750,371.671 111.291 C 371.629 110.832,371.595 111.208,371.595 112.126 M16.167 113.206 C 16.167 113.962,16.203 114.247,16.245 113.840 C 16.288 113.432,16.287 112.814,16.244 112.465 C 16.200 112.116,16.166 112.450,16.167 113.206 M397.903 113.697 C 397.903 114.399,397.938 114.686,397.982 114.335 C 398.026 113.984,398.026 113.409,397.982 113.058 C 397.938 112.707,397.903 112.995,397.903 113.697 M29.315 114.188 C 29.316 114.728,29.354 114.925,29.400 114.627 C 29.445 114.328,29.444 113.886,29.397 113.645 C 29.350 113.403,29.313 113.648,29.315 114.188 M1.826 114.482 C 1.826 115.076,1.863 115.319,1.908 115.022 C 1.953 114.725,1.953 114.239,1.908 113.942 C 1.863 113.645,1.826 113.888,1.826 114.482 M383.169 114.580 C 383.170 115.120,383.208 115.318,383.253 115.019 C 383.298 114.721,383.297 114.279,383.251 114.038 C 383.204 113.796,383.167 114.040,383.169 114.580 M16.363 117.329 C 16.364 118.085,16.399 118.371,16.442 117.963 C 16.484 117.556,16.484 116.937,16.440 116.589 C 16.397 116.240,16.362 116.573,16.363 117.329 M371.391 117.919 C 371.392 118.567,371.429 118.808,371.473 118.455 C 371.516 118.102,371.516 117.572,371.471 117.277 C 371.426 116.982,371.390 117.270,371.391 117.919 M397.712 118.409 C 397.712 119.327,397.746 119.703,397.787 119.244 C 397.829 118.785,397.829 118.034,397.787 117.575 C 397.746 117.116,397.712 117.491,397.712 118.409 M29.511 118.115 C 29.513 118.655,29.551 118.852,29.596 118.554 C 29.641 118.256,29.640 117.814,29.593 117.572 C 29.547 117.331,29.510 117.575,29.511 118.115 M382.966 118.311 C 382.968 118.743,383.008 118.897,383.055 118.653 C 383.102 118.408,383.100 118.055,383.051 117.867 C 383.002 117.679,382.963 117.879,382.966 118.311 M2.027 119.588 C 2.027 120.290,2.062 120.577,2.106 120.226 C 2.149 119.875,2.149 119.300,2.106 118.949 C 2.062 118.598,2.027 118.886,2.027 119.588 M16.556 121.846 C 16.557 122.494,16.593 122.735,16.637 122.382 C 16.681 122.029,16.680 121.499,16.635 121.204 C 16.590 120.909,16.555 121.198,16.556 121.846 M382.765 121.551 C 382.765 121.929,382.806 122.084,382.855 121.895 C 382.904 121.706,382.904 121.397,382.855 121.208 C 382.806 121.019,382.765 121.173,382.765 121.551 M29.701 122.042 C 29.703 122.474,29.743 122.628,29.790 122.384 C 29.837 122.139,29.836 121.786,29.786 121.598 C 29.737 121.410,29.699 121.610,29.701 122.042 M371.195 122.631 C 371.196 123.279,371.233 123.521,371.276 123.168 C 371.320 122.815,371.319 122.285,371.274 121.990 C 371.230 121.695,371.194 121.983,371.195 122.631 M2.221 124.202 C 2.222 124.850,2.259 125.092,2.302 124.739 C 2.346 124.386,2.345 123.856,2.300 123.561 C 2.256 123.265,2.220 123.554,2.221 124.202 M397.532 127.835 C 397.532 130.373,397.560 131.411,397.594 130.142 C 397.628 128.873,397.628 126.797,397.594 125.528 C 397.560 124.259,397.532 125.297,397.532 127.835 M382.573 124.988 C 382.575 125.420,382.615 125.573,382.662 125.329 C 382.709 125.085,382.707 124.731,382.658 124.544 C 382.609 124.356,382.571 124.556,382.573 124.988 M16.752 125.577 C 16.753 126.225,16.790 126.466,16.834 126.113 C 16.877 125.760,16.876 125.230,16.832 124.935 C 16.787 124.640,16.751 124.929,16.752 125.577 M29.901 125.479 C 29.901 125.965,29.940 126.163,29.986 125.920 C 30.033 125.677,30.033 125.280,29.986 125.037 C 29.940 124.794,29.901 124.993,29.901 125.479 M370.996 127.246 C 370.996 127.840,371.033 128.083,371.078 127.786 C 371.123 127.489,371.123 127.003,371.078 126.706 C 371.033 126.409,370.996 126.652,370.996 127.246 M382.373 128.228 C 382.373 128.606,382.413 128.760,382.462 128.571 C 382.512 128.382,382.512 128.073,382.462 127.884 C 382.413 127.695,382.373 127.850,382.373 128.228 M2.422 129.602 C 2.422 130.412,2.457 130.744,2.499 130.339 C 2.542 129.934,2.542 129.271,2.499 128.866 C 2.457 128.461,2.422 128.792,2.422 129.602 M30.090 129.013 C 30.090 129.391,30.130 129.546,30.180 129.357 C 30.229 129.168,30.229 128.859,30.180 128.670 C 30.130 128.481,30.090 128.635,30.090 129.013 M16.944 129.504 C 16.945 130.044,16.983 130.242,17.028 129.943 C 17.074 129.645,17.072 129.203,17.026 128.961 C 16.979 128.720,16.942 128.964,16.944 129.504 M370.797 131.271 C 370.799 131.811,370.837 132.009,370.882 131.711 C 370.927 131.412,370.926 130.970,370.880 130.729 C 370.833 130.487,370.796 130.731,370.797 131.271 M30.286 132.351 C 30.286 132.730,30.327 132.884,30.376 132.695 C 30.425 132.506,30.425 132.197,30.376 132.008 C 30.327 131.819,30.286 131.973,30.286 132.351 M17.137 133.137 C 17.137 133.623,17.176 133.822,17.223 133.579 C 17.269 133.336,17.269 132.938,17.223 132.695 C 17.176 132.452,17.137 132.651,17.137 133.137 M2.619 134.315 C 2.619 135.125,2.653 135.457,2.696 135.052 C 2.738 134.647,2.738 133.984,2.696 133.579 C 2.653 133.174,2.619 133.505,2.619 134.315 M381.980 134.708 C 381.980 135.086,382.020 135.241,382.070 135.052 C 382.119 134.863,382.119 134.553,382.070 134.364 C 382.020 134.175,381.980 134.330,381.980 134.708 M370.598 135.297 C 370.598 135.783,370.637 135.982,370.684 135.739 C 370.730 135.496,370.730 135.098,370.684 134.855 C 370.637 134.612,370.598 134.811,370.598 135.297 M30.482 135.690 C 30.482 136.068,30.523 136.222,30.572 136.033 C 30.622 135.844,30.622 135.535,30.572 135.346 C 30.523 135.157,30.482 135.312,30.482 135.690 M397.321 136.966 C 397.320 137.938,397.353 138.361,397.394 137.905 C 397.436 137.449,397.436 136.654,397.395 136.137 C 397.355 135.621,397.321 135.994,397.321 136.966 M17.330 136.573 C 17.332 137.005,17.372 137.159,17.419 136.915 C 17.466 136.670,17.464 136.317,17.415 136.129 C 17.366 135.942,17.328 136.141,17.330 136.573 M2.816 139.323 C 2.817 140.187,2.852 140.516,2.893 140.054 C 2.935 139.592,2.934 138.885,2.892 138.483 C 2.850 138.081,2.816 138.459,2.816 139.323 M370.398 138.733 C 370.400 139.165,370.440 139.319,370.487 139.075 C 370.534 138.831,370.533 138.477,370.483 138.289 C 370.434 138.102,370.396 138.301,370.398 138.733 M30.679 138.832 C 30.679 139.210,30.719 139.364,30.769 139.175 C 30.818 138.986,30.818 138.677,30.769 138.488 C 30.719 138.299,30.679 138.454,30.679 138.832 M17.526 139.912 C 17.528 140.344,17.569 140.497,17.616 140.253 C 17.663 140.009,17.661 139.655,17.612 139.468 C 17.562 139.280,17.524 139.480,17.526 139.912 M397.119 141.875 C 397.120 142.631,397.155 142.917,397.198 142.509 C 397.240 142.102,397.240 141.483,397.196 141.135 C 397.153 140.786,397.118 141.119,397.119 141.875 M370.198 142.366 C 370.198 142.744,370.238 142.899,370.288 142.710 C 370.337 142.521,370.337 142.212,370.288 142.023 C 370.238 141.834,370.198 141.988,370.198 142.366 M3.012 144.134 C 3.012 144.944,3.046 145.275,3.089 144.870 C 3.131 144.465,3.131 143.802,3.089 143.397 C 3.046 142.992,3.012 143.324,3.012 144.134 M396.917 145.508 C 396.917 146.102,396.954 146.345,396.999 146.048 C 397.044 145.751,397.044 145.265,396.999 144.968 C 396.954 144.671,396.917 144.914,396.917 145.508 M381.391 145.508 C 381.391 145.886,381.431 146.041,381.480 145.852 C 381.530 145.663,381.530 145.353,381.480 145.164 C 381.431 144.975,381.391 145.130,381.391 145.508 M370.001 145.704 C 370.001 146.082,370.042 146.237,370.091 146.048 C 370.141 145.859,370.141 145.550,370.091 145.361 C 370.042 145.172,370.001 145.326,370.001 145.704 M3.208 149.239 C 3.208 150.049,3.243 150.380,3.285 149.975 C 3.327 149.570,3.327 148.908,3.285 148.503 C 3.243 148.098,3.208 148.429,3.208 149.239 M396.718 148.945 C 396.719 149.485,396.758 149.682,396.803 149.384 C 396.848 149.085,396.847 148.643,396.800 148.402 C 396.753 148.160,396.716 148.405,396.718 148.945 M18.111 149.239 C 18.111 149.617,18.152 149.772,18.201 149.583 C 18.251 149.394,18.251 149.084,18.201 148.895 C 18.152 148.706,18.111 148.861,18.111 149.239 M381.202 149.828 C 381.202 150.314,381.241 150.513,381.287 150.270 C 381.334 150.027,381.334 149.629,381.287 149.386 C 381.241 149.143,381.202 149.342,381.202 149.828 M396.519 151.792 C 396.519 152.278,396.557 152.477,396.604 152.234 C 396.651 151.991,396.651 151.593,396.604 151.350 C 396.557 151.107,396.519 151.306,396.519 151.792 M369.609 151.988 C 369.609 152.366,369.649 152.521,369.698 152.332 C 369.748 152.143,369.748 151.834,369.698 151.645 C 369.649 151.456,369.609 151.610,369.609 151.988 M3.404 153.952 C 3.404 154.762,3.439 155.093,3.481 154.688 C 3.524 154.283,3.524 153.621,3.481 153.216 C 3.439 152.811,3.404 153.142,3.404 153.952 M381.011 154.934 C 381.011 155.528,381.048 155.771,381.093 155.474 C 381.138 155.177,381.138 154.691,381.093 154.394 C 381.048 154.097,381.011 154.340,381.011 154.934 M396.315 154.737 C 396.315 155.115,396.355 155.270,396.404 155.081 C 396.454 154.892,396.454 154.583,396.404 154.394 C 396.355 154.205,396.315 154.359,396.315 154.737 M396.118 157.094 C 396.118 157.472,396.159 157.626,396.208 157.437 C 396.257 157.248,396.257 156.939,396.208 156.750 C 396.159 156.561,396.118 156.716,396.118 157.094 M31.857 157.879 C 31.857 158.257,31.897 158.412,31.947 158.223 C 31.996 158.034,31.996 157.725,31.947 157.536 C 31.897 157.347,31.857 157.501,31.857 157.879 M3.601 159.057 C 3.601 159.867,3.635 160.199,3.678 159.794 C 3.720 159.389,3.720 158.726,3.678 158.321 C 3.635 157.916,3.601 158.247,3.601 159.057 M380.815 161.021 C 380.815 161.615,380.852 161.858,380.897 161.561 C 380.942 161.264,380.942 160.778,380.897 160.481 C 380.852 160.184,380.815 160.427,380.815 161.021 M32.053 161.414 C 32.053 161.792,32.094 161.946,32.143 161.757 C 32.193 161.568,32.193 161.259,32.143 161.070 C 32.094 160.881,32.053 161.036,32.053 161.414 M3.780 163.279 C 3.783 163.711,3.823 163.865,3.870 163.621 C 3.917 163.376,3.915 163.023,3.866 162.835 C 3.817 162.647,3.778 162.847,3.780 163.279 M32.250 164.752 C 32.250 165.130,32.290 165.285,32.340 165.096 C 32.389 164.907,32.389 164.597,32.340 164.408 C 32.290 164.219,32.250 164.374,32.250 164.752 M380.609 165.439 C 380.611 165.871,380.652 166.025,380.699 165.781 C 380.745 165.536,380.744 165.183,380.695 164.995 C 380.645 164.808,380.607 165.007,380.609 165.439 M32.454 168.876 C 32.454 169.362,32.492 169.561,32.539 169.318 C 32.586 169.075,32.586 168.677,32.539 168.434 C 32.492 168.191,32.454 168.390,32.454 168.876 M380.413 168.974 C 380.415 169.406,380.455 169.560,380.502 169.315 C 380.549 169.071,380.547 168.718,380.498 168.530 C 380.449 168.342,380.411 168.542,380.413 168.974 M32.653 173.490 C 32.655 174.030,32.693 174.228,32.738 173.930 C 32.783 173.631,32.782 173.189,32.735 172.948 C 32.689 172.706,32.652 172.950,32.653 173.490 M32.839 177.712 C 32.839 178.090,32.879 178.245,32.929 178.056 C 32.978 177.867,32.978 177.558,32.929 177.369 C 32.879 177.180,32.839 177.334,32.839 177.712 M33.035 180.658 C 33.035 181.036,33.076 181.190,33.125 181.001 C 33.174 180.812,33.174 180.503,33.125 180.314 C 33.076 180.125,33.035 180.280,33.035 180.658 M33.232 183.407 C 33.232 183.785,33.272 183.940,33.321 183.751 C 33.371 183.562,33.371 183.252,33.321 183.063 C 33.272 182.874,33.232 183.029,33.232 183.407 M367.056 187.334 C 367.056 187.712,367.096 187.867,367.146 187.678 C 367.195 187.489,367.195 187.180,367.146 186.991 C 367.096 186.802,367.056 186.956,367.056 187.334 M366.859 189.691 C 366.859 190.069,366.900 190.223,366.949 190.034 C 366.999 189.845,366.999 189.536,366.949 189.347 C 366.900 189.158,366.859 189.313,366.859 189.691 M21.450 189.887 C 21.450 190.265,21.490 190.420,21.539 190.231 C 21.589 190.042,21.589 189.732,21.539 189.543 C 21.490 189.354,21.450 189.509,21.450 189.887 M34.017 191.262 C 34.017 191.640,34.057 191.794,34.107 191.605 C 34.156 191.416,34.156 191.107,34.107 190.918 C 34.057 190.729,34.017 190.884,34.017 191.262 M366.667 192.342 C 366.669 192.774,366.709 192.927,366.756 192.683 C 366.803 192.439,366.802 192.085,366.752 191.898 C 366.703 191.710,366.665 191.910,366.667 192.342 M366.467 194.600 C 366.467 194.978,366.507 195.133,366.557 194.944 C 366.606 194.755,366.606 194.445,366.557 194.256 C 366.507 194.067,366.467 194.222,366.467 194.600 M22.039 195.189 C 22.039 195.567,22.079 195.722,22.128 195.533 C 22.178 195.344,22.178 195.034,22.128 194.845 C 22.079 194.656,22.039 194.811,22.039 195.189 M365.455 294.143 C 365.446 294.296,365.288 294.605,365.103 294.830 C 364.786 295.215,364.793 295.214,365.224 294.817 C 365.476 294.585,365.634 294.276,365.576 294.129 C 365.490 293.914,365.467 293.916,365.455 294.143 M59.205 313.402 C 59.372 313.726,59.554 313.991,59.608 313.991 C 59.662 313.991,59.569 313.726,59.401 313.402 C 59.234 313.078,59.052 312.813,58.998 312.813 C 58.944 312.813,59.037 313.078,59.205 313.402 M60.088 342.955 C 60.455 343.333,60.799 343.643,60.853 343.643 C 60.907 343.643,60.651 343.333,60.285 342.955 C 59.918 342.577,59.574 342.268,59.520 342.268 C 59.466 342.268,59.722 342.577,60.088 342.955 M286.389 373.932 L 285.812 374.570 286.451 373.994 C 287.046 373.456,287.179 373.294,287.027 373.294 C 286.994 373.294,286.706 373.581,286.389 373.932 M114.875 374.374 C 115.241 374.752,115.585 375.061,115.639 375.061 C 115.693 375.061,115.438 374.752,115.071 374.374 C 114.705 373.996,114.361 373.687,114.307 373.687 C 114.253 373.687,114.508 373.996,114.875 374.374 M284.622 375.896 L 284.045 376.534 284.683 375.957 C 285.278 375.420,285.412 375.258,285.260 375.258 C 285.226 375.258,284.939 375.545,284.622 375.896 M116.446 376.105 C 116.446 376.138,116.733 376.426,117.084 376.743 L 117.722 377.320 117.145 376.681 C 116.608 376.087,116.446 375.953,116.446 376.105 M282.562 378.154 L 281.885 378.891 282.622 378.214 C 283.027 377.842,283.358 377.510,283.358 377.477 C 283.358 377.327,283.192 377.469,282.562 378.154 M102.896 378.068 C 102.896 378.102,103.184 378.389,103.535 378.707 L 104.173 379.283 103.596 378.645 C 103.058 378.050,102.896 377.917,102.896 378.068 M121.060 380.952 C 121.919 381.816,122.666 382.523,122.720 382.523 C 122.774 382.523,122.116 381.816,121.257 380.952 C 120.398 380.088,119.651 379.381,119.597 379.381 C 119.543 379.381,120.201 380.088,121.060 380.952 M276.090 384.831 L 272.067 388.905 276.141 384.882 C 278.382 382.668,280.216 380.835,280.216 380.807 C 280.216 380.667,279.829 381.045,276.090 384.831 M291.102 384.143 L 290.525 384.782 291.163 384.205 C 291.758 383.667,291.892 383.505,291.740 383.505 C 291.706 383.505,291.419 383.792,291.102 384.143 M109.278 385.076 C 109.700 385.508,110.090 385.862,110.144 385.862 C 110.198 385.862,109.897 385.508,109.475 385.076 C 109.053 384.644,108.664 384.291,108.610 384.291 C 108.556 384.291,108.857 384.644,109.278 385.076 M289.053 386.352 C 288.576 386.838,288.229 387.236,288.283 387.236 C 288.337 387.236,288.772 386.838,289.249 386.352 C 289.726 385.866,290.072 385.469,290.018 385.469 C 289.964 385.469,289.530 385.866,289.053 386.352 M127.639 387.531 C 128.552 388.449,129.343 389.200,129.397 389.200 C 129.451 389.200,128.748 388.449,127.835 387.531 C 126.922 386.613,126.130 385.862,126.076 385.862 C 126.022 385.862,126.725 386.613,127.639 387.531 M111.528 387.482 C 112.010 387.995,112.430 388.414,112.461 388.414 C 112.609 388.414,112.453 388.238,111.586 387.424 L 110.653 386.549 111.528 387.482 M284.825 390.820 L 283.456 392.243 284.880 390.874 C 286.202 389.602,286.393 389.396,286.249 389.396 C 286.219 389.396,285.578 390.037,284.825 390.820 M114.777 390.967 C 115.198 391.399,115.588 391.753,115.642 391.753 C 115.696 391.753,115.395 391.399,114.973 390.967 C 114.551 390.535,114.162 390.182,114.108 390.182 C 114.054 390.182,114.355 390.535,114.777 390.967 M269.698 391.016 L 269.121 391.654 269.759 391.078 C 270.354 390.540,270.488 390.378,270.336 390.378 C 270.302 390.378,270.015 390.665,269.698 391.016 M132.155 391.851 C 132.522 392.229,132.865 392.538,132.919 392.538 C 132.973 392.538,132.718 392.229,132.351 391.851 C 131.985 391.473,131.641 391.163,131.587 391.163 C 131.533 391.163,131.789 391.473,132.155 391.851 M95.042 391.421 C 95.042 391.455,95.329 391.742,95.680 392.059 L 96.318 392.636 95.741 391.998 C 95.204 391.403,95.042 391.270,95.042 391.421 M267.538 392.980 L 266.961 393.618 267.599 393.041 C 268.194 392.504,268.328 392.342,268.176 392.342 C 268.142 392.342,267.855 392.629,267.538 392.980 M96.809 393.385 C 96.809 393.419,97.096 393.706,97.447 394.023 L 98.085 394.600 97.509 393.962 C 96.971 393.367,96.809 393.233,96.809 393.385 M120.373 396.760 C 122.153 398.542,123.653 400.000,123.707 400.000 C 123.761 400.000,122.349 398.542,120.569 396.760 C 118.790 394.978,117.290 393.520,117.236 393.520 C 117.182 393.520,118.594 394.978,120.373 396.760 M134.119 393.581 C 134.119 393.615,134.406 393.902,134.757 394.220 L 135.395 394.796 134.818 394.158 C 134.281 393.563,134.119 393.430,134.119 393.581 M138.439 397.509 C 138.439 397.542,138.726 397.830,139.077 398.147 L 139.715 398.724 139.139 398.085 C 138.601 397.491,138.439 397.357,138.439 397.509 M276.382 399.264 L 275.012 400.687 276.436 399.318 C 277.758 398.046,277.949 397.840,277.805 397.840 C 277.775 397.840,277.135 398.481,276.382 399.264 M297.588 399.264 L 296.416 400.491 297.644 399.319 C 298.319 398.674,298.871 398.122,298.871 398.092 C 298.871 397.946,298.677 398.124,297.588 399.264 M102.700 400.061 C 102.700 400.095,102.987 400.382,103.338 400.700 L 103.976 401.276 103.400 400.638 C 102.862 400.043,102.700 399.910,102.700 400.061 M126.755 402.946 C 127.177 403.378,127.566 403.731,127.620 403.731 C 127.674 403.731,127.373 403.378,126.951 402.946 C 126.530 402.514,126.140 402.160,126.086 402.160 C 126.032 402.160,126.333 402.514,126.755 402.946 M271.772 403.633 C 271.295 404.119,270.949 404.516,271.003 404.516 C 271.057 404.516,271.492 404.119,271.969 403.633 C 272.446 403.147,272.792 402.749,272.738 402.749 C 272.684 402.749,272.249 403.147,271.772 403.633 M108.493 406.087 C 110.218 407.815,111.674 409.229,111.728 409.229 C 111.782 409.229,110.415 407.815,108.689 406.087 C 106.964 404.359,105.508 402.946,105.454 402.946 C 105.400 402.946,106.767 404.359,108.493 406.087 M293.362 403.682 L 292.685 404.418 293.422 403.742 C 293.827 403.369,294.158 403.038,294.158 403.005 C 294.158 402.855,293.992 402.996,293.362 403.682 M129.308 405.302 C 129.730 405.734,130.119 406.087,130.173 406.087 C 130.227 406.087,129.926 405.734,129.504 405.302 C 129.082 404.870,128.693 404.516,128.639 404.516 C 128.585 404.516,128.886 404.870,129.308 405.302 M269.209 406.038 L 268.532 406.775 269.269 406.098 C 269.674 405.726,270.005 405.394,270.005 405.362 C 270.005 405.212,269.839 405.353,269.209 406.038 M290.909 406.333 L 290.133 407.167 290.967 406.391 C 291.426 405.964,291.802 405.589,291.802 405.557 C 291.802 405.408,291.631 405.557,290.909 406.333 M286.205 411.193 C 284.913 412.489,283.899 413.549,283.953 413.549 C 284.007 413.549,285.109 412.489,286.402 411.193 C 287.694 409.897,288.708 408.837,288.654 408.837 C 288.600 408.837,287.498 409.897,286.205 411.193 M264.985 409.867 L 264.408 410.506 265.047 409.929 C 265.398 409.612,265.685 409.324,265.685 409.291 C 265.685 409.139,265.523 409.273,264.985 409.867 M115.169 412.568 C 115.701 413.108,116.181 413.549,116.235 413.549 C 116.289 413.549,115.898 413.108,115.366 412.568 C 114.834 412.027,114.354 411.586,114.300 411.586 C 114.246 411.586,114.637 412.027,115.169 412.568 M118.017 415.182 C 118.017 415.216,118.304 415.503,118.655 415.820 L 119.293 416.397 118.716 415.758 C 118.179 415.164,118.017 415.030,118.017 415.182 M121.159 418.164 C 121.525 418.542,121.869 418.851,121.923 418.851 C 121.977 418.851,121.721 418.542,121.355 418.164 C 120.989 417.786,120.645 417.477,120.591 417.477 C 120.537 417.477,120.792 417.786,121.159 418.164 M127.050 423.429 C 127.050 423.463,127.337 423.750,127.688 424.067 L 128.326 424.644 127.749 424.006 C 127.212 423.411,127.050 423.277,127.050 423.429 M266.752 428.522 L 266.176 429.161 266.814 428.584 C 267.409 428.046,267.542 427.884,267.391 427.884 C 267.357 427.884,267.070 428.171,266.752 428.522 M264.789 430.290 L 264.212 430.928 264.850 430.351 C 265.201 430.034,265.488 429.747,265.488 429.713 C 265.488 429.561,265.326 429.695,264.789 430.290 M189.691 449.376 C 189.691 449.430,189.956 449.612,190.280 449.779 C 190.604 449.947,190.869 450.040,190.869 449.986 C 190.869 449.932,190.604 449.750,190.280 449.583 C 189.956 449.415,189.691 449.322,189.691 449.376 " stroke="none" fill="#7c7c7c" fill-rule="evenodd"></path><path id="path4" d="M91.284 132.646 C 81.545 133.702,73.554 136.233,67.040 140.322 C 65.264 141.437,61.203 144.528,61.337 144.662 C 61.470 144.795,64.739 144.344,68.729 143.641 C 74.663 142.596,75.811 142.479,80.020 142.485 C 85.695 142.493,89.565 143.247,94.867 145.377 C 101.273 147.950,105.140 150.400,112.911 156.809 C 114.369 158.011,116.118 159.373,116.798 159.835 C 118.160 160.760,118.077 160.668,123.737 167.501 C 129.993 175.053,132.668 178.825,141.479 192.521 C 144.956 197.925,145.049 198.452,144.838 211.487 C 144.539 229.975,144.311 312.890,144.559 313.097 C 144.595 313.127,147.665 313.208,151.380 313.278 L 158.137 313.404 157.994 268.042 L 157.851 222.680 158.552 222.680 C 159.119 222.680,159.254 222.755,159.254 223.066 C 159.254 224.121,160.230 226.297,162.208 229.651 C 163.036 231.055,164.597 233.927,165.675 236.033 C 169.814 244.113,179.668 261.772,182.111 265.488 C 182.785 266.514,183.538 267.840,183.784 268.434 C 185.283 272.060,191.561 281.777,199.134 292.194 C 201.136 294.948,203.160 297.776,203.632 298.478 C 205.683 301.529,215.720 312.215,220.029 315.935 C 232.613 326.798,246.525 331.468,266.302 331.468 C 281.426 331.468,296.598 326.938,303.238 320.441 C 304.773 318.938,304.841 318.954,300.412 319.773 C 285.664 322.501,279.547 321.993,268.630 317.135 C 264.216 315.171,258.468 311.712,256.191 309.649 L 255.238 308.787 255.045 307.020 C 254.920 305.878,254.909 298.863,255.015 287.187 C 255.200 266.876,255.197 268.847,255.130 206.023 L 255.081 160.009 248.650 160.141 C 242.699 160.263,242.195 160.300,241.897 160.641 C 241.341 161.279,241.304 167.541,241.481 231.321 C 241.579 266.869,241.577 292.777,241.476 293.176 C 241.322 293.785,240.688 294.534,240.318 294.546 C 240.145 294.552,230.757 281.423,229.369 279.234 C 228.787 278.316,227.013 275.533,225.427 273.049 C 219.937 264.451,208.781 244.815,204.452 236.132 C 203.645 234.512,202.367 232.037,201.613 230.633 C 200.859 229.229,198.943 225.562,197.354 222.484 C 187.370 203.136,170.254 174.876,166.142 170.950 C 165.809 170.633,165.538 170.271,165.538 170.145 C 165.538 168.561,154.015 154.807,148.819 150.189 C 136.643 139.366,126.606 134.881,109.966 132.828 C 106.334 132.380,94.773 132.267,91.284 132.646 " stroke="none" fill="#8e6f29" fill-rule="evenodd"></path></g></svg>